<svg width="29" height="29" viewBox="0 0 29 29" fill="none" xmlns="http://www.w3.org/2000/svg">
<g clip-path="url(#clip0_37_37)" filter="url(#filter0_d_37_37)">
<path d="M14.5 20.125C13.1729 20.125 11.9224 19.8734 10.7484 19.3703C9.57448 18.8672 8.55365 18.1818 7.68594 17.3141C6.81823 16.4464 6.13281 15.4255 5.62969 14.2516C5.12656 13.0776 4.875 11.8271 4.875 10.5C4.875 9.15833 5.12656 7.90417 5.62969 6.7375C6.13281 5.57083 6.81823 4.55365 7.68594 3.68594C8.55365 2.81823 9.57448 2.13281 10.7484 1.62969C11.9224 1.12656 13.1729 0.875 14.5 0.875C15.8417 0.875 17.0958 1.12656 18.2625 1.62969C19.4292 2.13281 20.4464 2.81823 21.3141 3.68594C22.1818 4.55365 22.8672 5.57083 23.3703 6.7375C23.8734 7.90417 24.125 9.15833 24.125 10.5C24.125 11.8271 23.8734 13.0776 23.3703 14.2516C22.8672 15.4255 22.1818 16.4464 21.3141 17.3141C20.4464 18.1818 19.4292 18.8672 18.2625 19.3703C17.0958 19.8734 15.8417 20.125 14.5 20.125ZM13.9531 17.3031C14.099 17.449 14.2667 17.5219 14.4563 17.5219C14.6458 17.5219 14.8135 17.449 14.9594 17.3031L21.2594 11.0031C21.4052 10.8573 21.4781 10.6823 21.4781 10.4781C21.4781 10.274 21.4052 10.099 21.2594 9.95312L14.9594 3.65313C14.8135 3.50729 14.6458 3.43438 14.4563 3.43438C14.2667 3.43438 14.099 3.50729 13.9531 3.65313L7.65313 9.95312C7.50729 10.099 7.43438 10.274 7.43438 10.4781C7.43438 10.6823 7.50729 10.8573 7.65313 11.0031L13.9531 17.3031ZM10.9781 13.1031V9.60312C10.9781 9.34062 11.0583 9.12917 11.2188 8.96875C11.3792 8.80833 11.5906 8.72813 11.8531 8.72813H15.4844L14.5656 7.76562L15.7906 6.54063L18.8531 9.60312L15.7906 12.6656L14.5656 11.4406L15.4844 10.4781H12.7281V13.1031H10.9781ZM14.5 18.375C16.7021 18.375 18.5651 17.613 20.0891 16.0891C21.613 14.5651 22.375 12.7021 22.375 10.5C22.375 8.29792 21.613 6.4349 20.0891 4.91094C18.5651 3.38698 16.7021 2.625 14.5 2.625C12.2979 2.625 10.4349 3.38698 8.91094 4.91094C7.38698 6.4349 6.625 8.29792 6.625 10.5C6.625 12.7021 7.38698 14.5651 8.91094 16.0891C10.4349 17.613 12.2979 18.375 14.5 18.375Z" fill="white"/>
</g>
<defs>
<filter id="filter0_d_37_37" x="0" y="0" width="29" height="29" filterUnits="userSpaceOnUse" color-interpolation-filters="sRGB">
<feFlood flood-opacity="0" result="BackgroundImageFix"/>
<feColorMatrix in="SourceAlpha" type="matrix" values="0 0 0 0 0 0 0 0 0 0 0 0 0 0 0 0 0 0 127 0" result="hardAlpha"/>
<feOffset dy="4"/>
<feGaussianBlur stdDeviation="2"/>
<feComposite in2="hardAlpha" operator="out"/>
<feColorMatrix type="matrix" values="0 0 0 0 0 0 0 0 0 0 0 0 0 0 0 0 0 0 0.25 0"/>
<feBlend mode="normal" in2="BackgroundImageFix" result="effect1_dropShadow_37_37"/>
<feBlend mode="normal" in="SourceGraphic" in2="effect1_dropShadow_37_37" result="shape"/>
</filter>
<clipPath id="clip0_37_37">
<rect width="21" height="21" fill="white" transform="translate(4)"/>
</clipPath>
</defs>
</svg>
