<svg width="86" height="20" viewBox="0 0 86 20" fill="none" xmlns="http://www.w3.org/2000/svg">
<g filter="url(#filter0_d_37_34)">
<path d="M4.38086 9V2.66016H5.35352L5.42969 3.59766C5.52344 3.46484 5.625 3.34375 5.73438 3.23438C5.84766 3.12109 5.9668 3.02344 6.0918 2.94141C6.2793 2.81641 6.48242 2.7207 6.70117 2.6543C6.92383 2.58398 7.1582 2.54688 7.4043 2.54297C7.73633 2.54297 8.03711 2.58984 8.30664 2.68359C8.58008 2.77734 8.8125 2.92383 9.00391 3.12305C9.19531 3.32227 9.3418 3.57617 9.44336 3.88477C9.54883 4.18945 9.60156 4.55273 9.60156 4.97461V9H8.51758V4.99805C8.51758 4.7168 8.48633 4.47852 8.42383 4.2832C8.36133 4.08789 8.26953 3.92969 8.14844 3.80859C8.02344 3.6875 7.87109 3.59961 7.69141 3.54492C7.51562 3.49023 7.3125 3.46289 7.08203 3.46289C6.88281 3.46289 6.69727 3.49219 6.52539 3.55078C6.35352 3.60547 6.19531 3.68164 6.05078 3.7793C5.93359 3.86523 5.82422 3.96484 5.72266 4.07812C5.625 4.19141 5.53906 4.31641 5.46484 4.45312V9H4.38086ZM15.7539 9C15.7109 8.91797 15.6758 8.81641 15.6484 8.69531C15.625 8.57031 15.6074 8.44141 15.5957 8.30859C15.4863 8.41797 15.3633 8.52148 15.2266 8.61914C15.0938 8.7168 14.9473 8.80273 14.7871 8.87695C14.623 8.95117 14.4492 9.00977 14.2656 9.05273C14.082 9.0957 13.8867 9.11719 13.6797 9.11719C13.3438 9.11719 13.0391 9.06836 12.7656 8.9707C12.4961 8.87305 12.2676 8.74023 12.0801 8.57227C11.8887 8.4082 11.7402 8.21289 11.6348 7.98633C11.5332 7.75586 11.4824 7.50781 11.4824 7.24219C11.4824 6.89453 11.5508 6.58984 11.6875 6.32812C11.8281 6.06641 12.0254 5.84766 12.2793 5.67188C12.5332 5.5 12.8379 5.37109 13.1934 5.28516C13.5527 5.19922 13.9531 5.15625 14.3945 5.15625H15.5781V4.6582C15.5781 4.4668 15.543 4.29492 15.4727 4.14258C15.4023 3.99023 15.3027 3.85938 15.1738 3.75C15.0449 3.64453 14.8867 3.5625 14.6992 3.50391C14.5156 3.44531 14.3086 3.41602 14.0781 3.41602C13.8633 3.41602 13.6699 3.44336 13.498 3.49805C13.3301 3.55273 13.1875 3.625 13.0703 3.71484C12.9531 3.80469 12.8613 3.91211 12.7949 4.03711C12.7324 4.1582 12.7012 4.28516 12.7012 4.41797H11.6113C11.6152 4.1875 11.6738 3.96094 11.7871 3.73828C11.9043 3.51562 12.0723 3.31445 12.291 3.13477C12.5059 2.95898 12.7676 2.81641 13.0762 2.70703C13.3887 2.59766 13.7422 2.54297 14.1367 2.54297C14.4961 2.54297 14.8301 2.58789 15.1387 2.67773C15.4473 2.76367 15.7148 2.89453 15.9414 3.07031C16.1641 3.25 16.3398 3.47266 16.4688 3.73828C16.5977 4.00391 16.6621 4.31445 16.6621 4.66992V7.61719C16.6621 7.82812 16.6816 8.05273 16.7207 8.29102C16.7598 8.52539 16.8145 8.73047 16.8848 8.90625V9H15.7539ZM13.8379 8.17383C14.0488 8.17383 14.2461 8.14648 14.4297 8.0918C14.6133 8.03711 14.7812 7.96484 14.9336 7.875C15.082 7.78516 15.2109 7.68359 15.3203 7.57031C15.4297 7.45312 15.5156 7.33203 15.5781 7.20703V5.92383H14.5703C14.1953 5.92383 13.8672 5.95703 13.5859 6.02344C13.3086 6.08594 13.0879 6.18359 12.9238 6.31641C12.8066 6.41016 12.7168 6.52148 12.6543 6.65039C12.5957 6.7793 12.5664 6.92578 12.5664 7.08984C12.5664 7.24609 12.5918 7.39062 12.6426 7.52344C12.6973 7.65625 12.7773 7.76953 12.8828 7.86328C12.9883 7.96094 13.1211 8.03711 13.2812 8.0918C13.4414 8.14648 13.627 8.17383 13.8379 8.17383ZM20.957 9L18.3496 2.66016H19.4629L21.2793 7.44141L21.3789 7.83398L21.4844 7.44141L23.2598 2.66016H24.3672L21.7832 9H20.957ZM26.1719 2.66016H29.4121V8.0625H31.4805V9H26.1719V8.0625H28.3281V3.60352H26.1719V2.66016ZM28.1875 0.996094C28.1875 0.902344 28.2012 0.814453 28.2285 0.732422C28.2598 0.650391 28.3066 0.580078 28.3691 0.521484C28.4199 0.470703 28.4844 0.431641 28.5625 0.404297C28.6445 0.373047 28.7363 0.357422 28.8379 0.357422C28.9395 0.357422 29.0293 0.373047 29.1074 0.404297C29.1855 0.431641 29.25 0.470703 29.3008 0.521484C29.3633 0.576172 29.4102 0.644531 29.4414 0.726562C29.4727 0.808594 29.4883 0.898438 29.4883 0.996094C29.4883 1.17188 29.4336 1.31836 29.3242 1.43555C29.2148 1.55273 29.0527 1.61133 28.8379 1.61133C28.6191 1.61133 28.4551 1.55273 28.3457 1.43555C28.2402 1.31836 28.1875 1.17188 28.1875 0.996094ZM33.0098 5.77734C33.0098 5.30469 33.0664 4.87109 33.1797 4.47656C33.2969 4.07812 33.4648 3.73633 33.6836 3.45117C33.9023 3.16602 34.168 2.94336 34.4805 2.7832C34.793 2.62305 35.1465 2.54297 35.541 2.54297C35.7949 2.54297 36.0273 2.57227 36.2383 2.63086C36.4531 2.68945 36.6465 2.77539 36.8184 2.88867C36.9121 2.94727 37 3.01562 37.082 3.09375C37.168 3.17188 37.248 3.25781 37.3223 3.35156L37.375 2.66016H38.3594V8.86523C38.3594 9.2832 38.293 9.6543 38.1602 9.97852C38.0312 10.3027 37.8496 10.5781 37.6152 10.8047C37.377 11.0312 37.0938 11.2031 36.7656 11.3203C36.4375 11.4375 36.0742 11.4961 35.6758 11.4961C35.5117 11.4961 35.3242 11.4766 35.1133 11.4375C34.9023 11.4023 34.6895 11.3418 34.4746 11.2559C34.2559 11.1738 34.0449 11.0625 33.8418 10.9219C33.6426 10.7812 33.4707 10.6074 33.3262 10.4004L33.8887 9.75C34.0215 9.91016 34.1582 10.0449 34.2988 10.1543C34.4395 10.2676 34.582 10.3574 34.7266 10.4238C34.8711 10.4902 35.0156 10.5371 35.1602 10.5645C35.3047 10.5957 35.4492 10.6113 35.5938 10.6113C35.8516 10.6113 36.084 10.5742 36.291 10.5C36.498 10.4258 36.6758 10.3164 36.8242 10.1719C36.9688 10.0312 37.0801 9.85547 37.1582 9.64453C37.2363 9.43359 37.2754 9.19141 37.2754 8.91797V8.37305C37.1934 8.4668 37.1055 8.55273 37.0117 8.63086C36.9219 8.70898 36.8242 8.77734 36.7188 8.83594C36.5547 8.92578 36.373 8.99414 36.1738 9.04102C35.9746 9.0918 35.7598 9.11719 35.5293 9.11719C35.1426 9.11719 34.793 9.03516 34.4805 8.87109C34.168 8.70703 33.9043 8.48047 33.6895 8.19141C33.4707 7.90234 33.3027 7.5625 33.1855 7.17188C33.0684 6.77734 33.0098 6.35352 33.0098 5.90039V5.77734ZM34.0938 5.90039C34.0938 6.20898 34.125 6.50195 34.1875 6.7793C34.2539 7.05664 34.3574 7.30078 34.498 7.51172C34.6348 7.72266 34.8105 7.89062 35.0254 8.01562C35.2402 8.13672 35.498 8.19727 35.7988 8.19727C35.9863 8.19727 36.1543 8.17578 36.3027 8.13281C36.4551 8.08594 36.5918 8.02148 36.7129 7.93945C36.8301 7.85742 36.9355 7.75977 37.0293 7.64648C37.123 7.5332 37.2051 7.4082 37.2754 7.27148V4.36523C37.2051 4.23242 37.123 4.11133 37.0293 4.00195C36.9355 3.89258 36.8281 3.79688 36.707 3.71484C36.5859 3.63672 36.4512 3.57617 36.3027 3.5332C36.1543 3.48633 35.9902 3.46289 35.8105 3.46289C35.5059 3.46289 35.2441 3.52539 35.0254 3.65039C34.8105 3.77539 34.6348 3.94336 34.498 4.1543C34.3574 4.36914 34.2539 4.61719 34.1875 4.89844C34.125 5.17578 34.0938 5.46875 34.0938 5.77734V5.90039ZM44.582 9C44.5391 8.91797 44.5039 8.81641 44.4766 8.69531C44.4531 8.57031 44.4355 8.44141 44.4238 8.30859C44.3145 8.41797 44.1914 8.52148 44.0547 8.61914C43.9219 8.7168 43.7754 8.80273 43.6152 8.87695C43.4512 8.95117 43.2773 9.00977 43.0938 9.05273C42.9102 9.0957 42.7148 9.11719 42.5078 9.11719C42.1719 9.11719 41.8672 9.06836 41.5938 8.9707C41.3242 8.87305 41.0957 8.74023 40.9082 8.57227C40.7168 8.4082 40.5684 8.21289 40.4629 7.98633C40.3613 7.75586 40.3105 7.50781 40.3105 7.24219C40.3105 6.89453 40.3789 6.58984 40.5156 6.32812C40.6562 6.06641 40.8535 5.84766 41.1074 5.67188C41.3613 5.5 41.666 5.37109 42.0215 5.28516C42.3809 5.19922 42.7812 5.15625 43.2227 5.15625H44.4062V4.6582C44.4062 4.4668 44.3711 4.29492 44.3008 4.14258C44.2305 3.99023 44.1309 3.85938 44.002 3.75C43.873 3.64453 43.7148 3.5625 43.5273 3.50391C43.3438 3.44531 43.1367 3.41602 42.9062 3.41602C42.6914 3.41602 42.498 3.44336 42.3262 3.49805C42.1582 3.55273 42.0156 3.625 41.8984 3.71484C41.7812 3.80469 41.6895 3.91211 41.623 4.03711C41.5605 4.1582 41.5293 4.28516 41.5293 4.41797H40.4395C40.4434 4.1875 40.502 3.96094 40.6152 3.73828C40.7324 3.51562 40.9004 3.31445 41.1191 3.13477C41.334 2.95898 41.5957 2.81641 41.9043 2.70703C42.2168 2.59766 42.5703 2.54297 42.9648 2.54297C43.3242 2.54297 43.6582 2.58789 43.9668 2.67773C44.2754 2.76367 44.543 2.89453 44.7695 3.07031C44.9922 3.25 45.168 3.47266 45.2969 3.73828C45.4258 4.00391 45.4902 4.31445 45.4902 4.66992V7.61719C45.4902 7.82812 45.5098 8.05273 45.5488 8.29102C45.5879 8.52539 45.6426 8.73047 45.7129 8.90625V9H44.582ZM42.666 8.17383C42.877 8.17383 43.0742 8.14648 43.2578 8.0918C43.4414 8.03711 43.6094 7.96484 43.7617 7.875C43.9102 7.78516 44.0391 7.68359 44.1484 7.57031C44.2578 7.45312 44.3438 7.33203 44.4062 7.20703V5.92383H43.3984C43.0234 5.92383 42.6953 5.95703 42.4141 6.02344C42.1367 6.08594 41.916 6.18359 41.752 6.31641C41.6348 6.41016 41.5449 6.52148 41.4824 6.65039C41.4238 6.7793 41.3945 6.92578 41.3945 7.08984C41.3945 7.24609 41.4199 7.39062 41.4707 7.52344C41.5254 7.65625 41.6055 7.76953 41.7109 7.86328C41.8164 7.96094 41.9492 8.03711 42.1094 8.0918C42.2695 8.14648 42.4551 8.17383 42.666 8.17383ZM50.1895 1.125V2.66016H52.6035V3.49805H50.1895V6.94336C50.1895 7.18945 50.2207 7.39258 50.2832 7.55273C50.3457 7.71289 50.4316 7.83984 50.541 7.93359C50.6504 8.03125 50.7754 8.09961 50.916 8.13867C51.0605 8.17773 51.2129 8.19727 51.373 8.19727C51.4902 8.19727 51.6113 8.19141 51.7363 8.17969C51.8613 8.16406 51.9844 8.14648 52.1055 8.12695C52.2227 8.10742 52.332 8.08789 52.4336 8.06836C52.5391 8.04492 52.625 8.02539 52.6914 8.00977L52.8438 8.77734C52.7539 8.83203 52.6445 8.88086 52.5156 8.92383C52.3867 8.96289 52.2461 8.99609 52.0938 9.02344C51.9414 9.05469 51.7793 9.07812 51.6074 9.09375C51.4395 9.10938 51.2715 9.11719 51.1035 9.11719C50.8223 9.11719 50.5586 9.07812 50.3125 9C50.0703 8.91797 49.8594 8.78906 49.6797 8.61328C49.5 8.44141 49.3574 8.21875 49.252 7.94531C49.1504 7.66797 49.0996 7.33398 49.0996 6.94336V3.49805H47.4355V2.66016H49.0996V1.125H50.1895ZM57.6309 9.11719C57.1855 9.11719 56.7754 9.04102 56.4004 8.88867C56.0293 8.73633 55.7109 8.52344 55.4453 8.25C55.1797 7.97656 54.9727 7.65234 54.8242 7.27734C54.6758 6.90234 54.6016 6.49414 54.6016 6.05273V5.80664C54.6016 5.29492 54.6836 4.83789 54.8477 4.43555C55.0117 4.0293 55.2305 3.68555 55.5039 3.4043C55.7734 3.12695 56.0801 2.91406 56.4238 2.76562C56.7715 2.61719 57.127 2.54297 57.4902 2.54297C57.9473 2.54297 58.3457 2.62305 58.6855 2.7832C59.0293 2.93945 59.3145 3.15625 59.541 3.43359C59.7676 3.71484 59.9355 4.04492 60.0449 4.42383C60.1582 4.80273 60.2148 5.21289 60.2148 5.6543V6.14062H55.6855V6.18164C55.7129 6.49023 55.7734 6.76172 55.8672 6.99609C55.9648 7.23047 56.0977 7.4375 56.2656 7.61719C56.4375 7.80859 56.6445 7.95898 56.8867 8.06836C57.1289 8.17773 57.3965 8.23242 57.6895 8.23242C58.0762 8.23242 58.4199 8.1543 58.7207 7.99805C59.0215 7.8418 59.2715 7.63477 59.4707 7.37695L60.1328 7.89258C59.9219 8.21289 59.6055 8.49805 59.1836 8.74805C58.7656 8.99414 58.248 9.11719 57.6309 9.11719ZM57.4902 3.43359C57.2715 3.43359 57.0645 3.47461 56.8691 3.55664C56.6738 3.63477 56.498 3.75 56.3418 3.90234C56.1855 4.05859 56.0527 4.25 55.9434 4.47656C55.8379 4.69922 55.7637 4.95703 55.7207 5.25H59.1309V5.19727C59.1309 5.00195 59.0938 4.79297 59.0195 4.57031C58.9453 4.34375 58.8418 4.14844 58.709 3.98438C58.5762 3.82031 58.4082 3.6875 58.2051 3.58594C58.0059 3.48438 57.7676 3.43359 57.4902 3.43359ZM69.7422 2.66016L69.7715 3.25781C69.9004 3.03516 70.0684 2.86133 70.2754 2.73633C70.4863 2.61133 70.7402 2.54688 71.0371 2.54297C71.2051 2.54297 71.3555 2.5625 71.4883 2.60156C71.625 2.63672 71.7441 2.68945 71.8457 2.75977C71.9199 2.81445 71.9863 2.88086 72.0449 2.95898C72.1074 3.03711 72.1602 3.125 72.2031 3.22266C72.2578 3.13281 72.3223 3.04883 72.3965 2.9707C72.4707 2.89258 72.5508 2.82422 72.6367 2.76562C72.7461 2.69922 72.8672 2.64648 73 2.60742C73.1367 2.56836 73.2852 2.54688 73.4453 2.54297C73.6641 2.54297 73.8613 2.57617 74.0371 2.64258C74.2129 2.70508 74.3613 2.79883 74.4824 2.92383C74.6152 3.06445 74.7168 3.24805 74.7871 3.47461C74.8574 3.69727 74.8926 3.96094 74.8926 4.26562V9H73.8613V4.25391C73.8613 4.12109 73.8457 4.00391 73.8145 3.90234C73.7832 3.80078 73.7383 3.7168 73.6797 3.65039C73.6172 3.58789 73.5391 3.54102 73.4453 3.50977C73.3555 3.47852 73.25 3.46289 73.1289 3.46289C73 3.46289 72.8887 3.48047 72.7949 3.51562C72.7012 3.55078 72.623 3.59766 72.5605 3.65625C72.498 3.71875 72.4492 3.79102 72.4141 3.87305C72.3789 3.95117 72.3555 4.03906 72.3438 4.13672C72.3438 4.15625 72.3438 4.17578 72.3438 4.19531C72.3438 4.21094 72.3438 4.23047 72.3438 4.25391V9H71.3125V4.24805C71.3125 4.11523 71.2969 3.99805 71.2656 3.89648C71.2383 3.79492 71.1934 3.71094 71.1309 3.64453C71.0723 3.58203 70.998 3.53711 70.9082 3.50977C70.8223 3.47852 70.7207 3.46289 70.6035 3.46289C70.4746 3.46289 70.3613 3.47852 70.2637 3.50977C70.1699 3.53711 70.0898 3.57812 70.0234 3.63281C69.9727 3.67578 69.9277 3.72461 69.8887 3.7793C69.8535 3.83398 69.8242 3.89258 69.8008 3.95508V9H68.7695V2.66016H69.7422ZM79.252 9.11719C78.8066 9.11719 78.3965 9.04102 78.0215 8.88867C77.6504 8.73633 77.332 8.52344 77.0664 8.25C76.8008 7.97656 76.5938 7.65234 76.4453 7.27734C76.2969 6.90234 76.2227 6.49414 76.2227 6.05273V5.80664C76.2227 5.29492 76.3047 4.83789 76.4688 4.43555C76.6328 4.0293 76.8516 3.68555 77.125 3.4043C77.3945 3.12695 77.7012 2.91406 78.0449 2.76562C78.3926 2.61719 78.748 2.54297 79.1113 2.54297C79.5684 2.54297 79.9668 2.62305 80.3066 2.7832C80.6504 2.93945 80.9355 3.15625 81.1621 3.43359C81.3887 3.71484 81.5566 4.04492 81.666 4.42383C81.7793 4.80273 81.8359 5.21289 81.8359 5.6543V6.14062H77.3066V6.18164C77.334 6.49023 77.3945 6.76172 77.4883 6.99609C77.5859 7.23047 77.7188 7.4375 77.8867 7.61719C78.0586 7.80859 78.2656 7.95898 78.5078 8.06836C78.75 8.17773 79.0176 8.23242 79.3105 8.23242C79.6973 8.23242 80.041 8.1543 80.3418 7.99805C80.6426 7.8418 80.8926 7.63477 81.0918 7.37695L81.7539 7.89258C81.543 8.21289 81.2266 8.49805 80.8047 8.74805C80.3867 8.99414 79.8691 9.11719 79.252 9.11719ZM79.1113 3.43359C78.8926 3.43359 78.6855 3.47461 78.4902 3.55664C78.2949 3.63477 78.1191 3.75 77.9629 3.90234C77.8066 4.05859 77.6738 4.25 77.5645 4.47656C77.459 4.69922 77.3848 4.95703 77.3418 5.25H80.752V5.19727C80.752 5.00195 80.7148 4.79297 80.6406 4.57031C80.5664 4.34375 80.4629 4.14844 80.3301 3.98438C80.1973 3.82031 80.0293 3.6875 79.8262 3.58594C79.627 3.48438 79.3887 3.43359 79.1113 3.43359Z" fill="white"/>
</g>
<defs>
<filter id="filter0_d_37_34" x="0.380859" y="0.357422" width="85.4551" height="19.1387" filterUnits="userSpaceOnUse" color-interpolation-filters="sRGB">
<feFlood flood-opacity="0" result="BackgroundImageFix"/>
<feColorMatrix in="SourceAlpha" type="matrix" values="0 0 0 0 0 0 0 0 0 0 0 0 0 0 0 0 0 0 127 0" result="hardAlpha"/>
<feOffset dy="4"/>
<feGaussianBlur stdDeviation="2"/>
<feComposite in2="hardAlpha" operator="out"/>
<feColorMatrix type="matrix" values="0 0 0 0 0 0 0 0 0 0 0 0 0 0 0 0 0 0 0.25 0"/>
<feBlend mode="normal" in2="BackgroundImageFix" result="effect1_dropShadow_37_34"/>
<feBlend mode="normal" in="SourceGraphic" in2="effect1_dropShadow_37_34" result="shape"/>
</filter>
</defs>
</svg>
